<?xml version='1.0' encoding='utf-8'?>
<svg xmlns:xlink="http://www.w3.org/1999/xlink" xmlns="http://www.w3.org/2000/svg" id="Capa_1" data-name="Capa 1" viewBox="0 0 3000 3000"><defs><style>.cls-1{fill:url(#Degradado_sin_nombre_52);}.cls-2{opacity:0.42;fill:url(#Degradado_sin_nombre_65);}.cls-3{fill:url(#Degradado_sin_nombre_31);}.cls-4{fill:url(#Degradado_sin_nombre_18);}.cls-5{fill:url(#Degradado_sin_nombre_10);}.cls-6{fill:url(#Degradado_sin_nombre_10-2);}.cls-7{fill:url(#Degradado_sin_nombre_10-3);}.cls-8{fill:url(#Degradado_sin_nombre_10-4);}.cls-9{fill:url(#Degradado_sin_nombre_10-5);}.cls-10{fill:url(#Degradado_sin_nombre_10-6);}.cls-11{fill:url(#Degradado_sin_nombre_10-7);}.cls-12{fill:url(#Degradado_sin_nombre_10-8);}.cls-13{fill:url(#Degradado_sin_nombre_60);}.cls-14{fill:url(#Degradado_sin_nombre_60-2);}.cls-15{fill:url(#Degradado_sin_nombre_60-3);}.cls-16{fill:url(#Degradado_sin_nombre_60-4);}.cls-17{fill:url(#Degradado_sin_nombre_60-5);}.cls-18{fill:url(#Degradado_sin_nombre_60-6);}.cls-19{fill:url(#Degradado_sin_nombre_60-7);}.cls-20{opacity:0.05;}.cls-21{fill:url(#Degradado_sin_nombre_70);}.cls-22{opacity:0.24;}.cls-23{fill:url(#Degradado_sin_nombre_82);}.cls-24{opacity:0.06;}.cls-25{fill:#fff;}</style><linearGradient id="Degradado_sin_nombre_52" x1="684.75" y1="2475.74" x2="2627.41" y2="472.99" gradientUnits="userSpaceOnUse"><stop offset="0" stop-color="red"/><stop offset="0.25" stop-color="#ff0301"/><stop offset="0.42" stop-color="#fd0c05"/><stop offset="0.57" stop-color="#fb1b0b"/><stop offset="0.7" stop-color="#f83013"/><stop offset="0.82" stop-color="#f34c1e"/><stop offset="0.87" stop-color="#f15a24"/></linearGradient><linearGradient id="Degradado_sin_nombre_65" x1="1173.44" y1="2491.65" x2="594.75" y2="1288.07" gradientUnits="userSpaceOnUse"><stop offset="0" stop-color="red"/><stop offset="0.43" stop-color="#ff0201"/><stop offset="0.59" stop-color="#fe0903"/><stop offset="0.7" stop-color="#fc1408"/><stop offset="0.79" stop-color="#f9250f"/><stop offset="0.86" stop-color="#f63b18"/><stop offset="0.93" stop-color="#f25622"/><stop offset="0.94" stop-color="#f15a24"/></linearGradient><linearGradient id="Degradado_sin_nombre_31" x1="615.52" y1="2365.48" x2="2285.78" y2="833.69" gradientUnits="userSpaceOnUse"><stop offset="0" stop-color="#fcee21"/><stop offset="0.15" stop-color="#f8b922"/><stop offset="0.41" stop-color="#f26523"/><stop offset="0.59" stop-color="#ee3024"/><stop offset="0.68" stop-color="#ed1c24"/></linearGradient><linearGradient id="Degradado_sin_nombre_18" x1="500.73" y1="2444.82" x2="1881.52" y2="1169.74" gradientUnits="userSpaceOnUse"><stop offset="0" stop-color="#f15a24"/><stop offset="0.16" stop-color="#f15f24"/><stop offset="0.34" stop-color="#f36d22"/><stop offset="0.53" stop-color="#f58420"/><stop offset="0.63" stop-color="#f7931e"/></linearGradient><linearGradient id="Degradado_sin_nombre_10" x1="367.07" y1="2493.58" x2="992.3" y2="1966.09" gradientUnits="userSpaceOnUse"><stop offset="0" stop-color="#c1272d"/><stop offset="0.27" stop-color="#c52c2c"/><stop offset="0.57" stop-color="#d33a2a"/><stop offset="0.89" stop-color="#e85126"/><stop offset="1" stop-color="#f15a24"/></linearGradient><linearGradient id="Degradado_sin_nombre_10-2" x1="282.16" y1="2280.95" x2="396.75" y2="2175.13" xlink:href="#Degradado_sin_nombre_10"/><linearGradient id="Degradado_sin_nombre_10-3" x1="494.4" y1="2516.72" x2="549.85" y2="2465.52" xlink:href="#Degradado_sin_nombre_10"/><linearGradient id="Degradado_sin_nombre_10-4" x1="634.87" y1="2309.67" x2="677.99" y2="2269.85" xlink:href="#Degradado_sin_nombre_10"/><linearGradient id="Degradado_sin_nombre_10-5" x1="539.4" y1="2097.72" x2="594.85" y2="2046.52" xlink:href="#Degradado_sin_nombre_10"/><linearGradient id="Degradado_sin_nombre_10-6" x1="821.43" y1="2402.47" x2="942.18" y2="2290.97" xlink:href="#Degradado_sin_nombre_10"/><linearGradient id="Degradado_sin_nombre_10-7" x1="285.49" y1="2523.78" x2="363.87" y2="2451.41" xlink:href="#Degradado_sin_nombre_10"/><linearGradient id="Degradado_sin_nombre_10-8" x1="777.41" y1="2058.1" x2="865.29" y2="1976.96" xlink:href="#Degradado_sin_nombre_10"/><linearGradient id="Degradado_sin_nombre_60" x1="683.33" y1="1768.48" x2="806.55" y2="1654.7" gradientUnits="userSpaceOnUse"><stop offset="0" stop-color="#f15a24"/><stop offset="0.93" stop-color="#f7931e"/></linearGradient><linearGradient id="Degradado_sin_nombre_60-2" x1="1480.43" y1="2241.59" x2="1603.64" y2="2127.81" xlink:href="#Degradado_sin_nombre_60"/><linearGradient id="Degradado_sin_nombre_60-3" x1="1416.48" y1="1377.26" x2="1483.02" y2="1315.82" xlink:href="#Degradado_sin_nombre_60"/><linearGradient id="Degradado_sin_nombre_60-4" x1="1395.25" y1="1770.41" x2="1509.72" y2="1664.71" xlink:href="#Degradado_sin_nombre_60"/><linearGradient id="Degradado_sin_nombre_60-5" x1="1198.15" y1="1666.64" x2="1233.88" y2="1633.64" xlink:href="#Degradado_sin_nombre_60"/><linearGradient id="Degradado_sin_nombre_60-6" x1="1169.15" y1="2202.64" x2="1204.88" y2="2169.64" xlink:href="#Degradado_sin_nombre_60"/><linearGradient id="Degradado_sin_nombre_60-7" x1="859.15" y1="1402.64" x2="894.88" y2="1369.64" xlink:href="#Degradado_sin_nombre_60"/><linearGradient id="Degradado_sin_nombre_70" x1="321.1" y1="2685.52" x2="1262.98" y2="1815.74" gradientUnits="userSpaceOnUse"><stop offset="0.53" stop-color="#fff" stop-opacity="0"/><stop offset="0.58" stop-color="#fef6eb" stop-opacity="0.09"/><stop offset="0.7" stop-color="#fdddb9" stop-opacity="0.31"/><stop offset="0.86" stop-color="#fab768" stop-opacity="0.67"/><stop offset="1" stop-color="#f7931e"/></linearGradient><linearGradient id="Degradado_sin_nombre_82" x1="1179.45" y1="1567.23" x2="1992.22" y2="2729.91" gradientUnits="userSpaceOnUse"><stop offset="0" stop-color="#fff" stop-opacity="0"/><stop offset="0.01" stop-color="#f5f5f5" stop-opacity="0.04"/><stop offset="0.56"/></linearGradient></defs><path class="cls-1" d="M1262.71,2740.59q31.47-21.71,60.64-46.4L2854,1595.91,1771.25,1828.15,2632.42,283,1224.76,1081.35,1457.5,322.57l-1132,1197a776,776,0,0,0-95,100.43l-39.82,55.26C110.53,1797.48,63.86,1944,63.86,2101.49c0,427.2,343.3,773.51,766.79,773.51a758.44,758.44,0,0,0,426.8-130.82l2.08,2.1Z"/><path class="cls-2" d="M654.5,1579c-147.59,0-290.51,15.34-426.19,44l-37.63,52.23C110.53,1797.48,63.86,1944,63.86,2101.49c0,427.2,343.3,773.51,766.79,773.51a758.44,758.44,0,0,0,426.8-130.82l2.08,2.1,3.18-5.69q31.47-21.71,60.64-46.4l710.11-509.52C1756.09,1822.31,1242.38,1579,654.5,1579Z"/><path class="cls-3" d="M1103.41,2720q26.23-18.07,50.54-38.66l1275.54-915.24-902.3,193.54L2244.84,672,1071.79,1337.29l194-632.31-943.35,997.5a645.52,645.52,0,0,0-79.15,83.7l-33.19,46c-66.79,101.85-105.68,223.94-105.68,355.19,0,356,286.08,644.59,639,644.59A632.13,632.13,0,0,0,1099,2723l1.74,1.75Z"/><path class="cls-4" d="M934.75,2688.46q21.21-14.61,40.85-31.25l1031.06-739.82-729.35,156.44L1857.4,1033,909.19,1570.78,1066,1059.66,303.43,1866a521.77,521.77,0,0,0-64,67.66l-26.83,37.22A521.83,521.83,0,0,0,127.19,2258c0,287.76,231.25,521,516.52,521a510.92,510.92,0,0,0,287.5-88.12l1.4,1.42Z"/><circle class="cls-5" cx="606" cy="2292" r="409"/><circle class="cls-6" cx="333" cy="2234" r="93"/><circle class="cls-7" cx="519" cy="2494" r="45"/><circle class="cls-8" cx="654" cy="2292" r="35"/><circle class="cls-9" cx="564" cy="2075" r="45"/><circle class="cls-10" cx="875" cy="2353" r="98"/><path class="cls-11" d="M295,2417a97.69,97.69,0,0,0-68.46,27.89,410,410,0,0,0,113,157.42A98,98,0,0,0,295,2417Z"/><path class="cls-12" d="M927.5,2039.15A410.6,410.6,0,0,0,781.57,1922.5,98,98,0,1,0,927.5,2039.15Z"/><circle class="cls-13" cx="738" cy="1718" r="100"/><path class="cls-14" d="M1559,2117a100,100,0,0,0-69.75,171.65l160-114.8A100,100,0,0,0,1559,2117Z"/><circle class="cls-15" cx="1446" cy="1350" r="54"/><path class="cls-16" d="M1382,1752a99.73,99.73,0,0,0,33.2,74.41l95-170.38A100.06,100.06,0,0,0,1382,1752Z"/><circle class="cls-17" cx="1214" cy="1652" r="29"/><circle class="cls-18" cx="1185" cy="2188" r="29"/><circle class="cls-19" cx="875" cy="1388" r="29"/><path class="cls-1" d="M1262.71,2740.59q31.47-21.71,60.64-46.4L2854,1595.91,1771.25,1828.15,2632.42,283,1224.76,1081.35,1457.5,322.57l-1132,1197a776,776,0,0,0-95,100.43l-39.82,55.26C110.53,1797.48,63.86,1944,63.86,2101.49c0,427.2,343.3,773.51,766.79,773.51a758.44,758.44,0,0,0,426.8-130.82l2.08,2.1Z"/><path class="cls-2" d="M654.5,1579c-147.59,0-290.51,15.34-426.19,44l-37.63,52.23C110.53,1797.48,63.86,1944,63.86,2101.49c0,427.2,343.3,773.51,766.79,773.51a758.44,758.44,0,0,0,426.8-130.82l2.08,2.1,3.18-5.69q31.47-21.71,60.64-46.4l710.11-509.52C1756.09,1822.31,1242.38,1579,654.5,1579Z"/><path class="cls-3" d="M1103.41,2720q26.23-18.07,50.54-38.66l1275.54-915.24-902.3,193.54L2244.84,672,1071.79,1337.29l194-632.31-943.35,997.5a645.52,645.52,0,0,0-79.15,83.7l-33.19,46c-66.79,101.85-105.68,223.94-105.68,355.19,0,356,286.08,644.59,639,644.59A632.13,632.13,0,0,0,1099,2723l1.74,1.75Z"/><path class="cls-4" d="M934.75,2688.46q21.21-14.61,40.85-31.25l1031.06-739.82-729.35,156.44L1857.4,1033,909.19,1570.78,1066,1059.66,303.43,1866a521.77,521.77,0,0,0-64,67.66l-26.83,37.22A521.83,521.83,0,0,0,127.19,2258c0,287.76,231.25,521,516.52,521a510.92,510.92,0,0,0,287.5-88.12l1.4,1.42Z"/><circle class="cls-5" cx="606" cy="2292" r="409"/><circle class="cls-6" cx="333" cy="2234" r="93"/><circle class="cls-7" cx="519" cy="2494" r="45"/><circle class="cls-8" cx="654" cy="2292" r="35"/><circle class="cls-9" cx="564" cy="2075" r="45"/><circle class="cls-10" cx="875" cy="2353" r="98"/><path class="cls-11" d="M295,2417a97.69,97.69,0,0,0-68.46,27.89,410,410,0,0,0,113,157.42A98,98,0,0,0,295,2417Z"/><path class="cls-12" d="M927.5,2039.15A410.6,410.6,0,0,0,781.57,1922.5,98,98,0,1,0,927.5,2039.15Z"/><circle class="cls-13" cx="738" cy="1718" r="100"/><path class="cls-14" d="M1559,2117a100,100,0,0,0-69.75,171.65l160-114.8A100,100,0,0,0,1559,2117Z"/><circle class="cls-15" cx="1446" cy="1350" r="54"/><path class="cls-16" d="M1382,1752a99.73,99.73,0,0,0,33.2,74.41l95-170.38A100.06,100.06,0,0,0,1382,1752Z"/><circle class="cls-17" cx="1214" cy="1652" r="29"/><circle class="cls-18" cx="1185" cy="2188" r="29"/><circle class="cls-19" cx="875" cy="1388" r="29"/><g class="cls-20"><path class="cls-21" d="M732,1619c-271.5,0-511.33,135.59-655.48,342.75a786.89,786.89,0,0,0,13.9,343.3,773,773,0,0,0,33.69,98.53q3.65,8.67,7.48,17.24a774.58,774.58,0,0,0,53.07,98.59q5,7.85,10.15,15.56,7.75,11.57,15.9,22.84,5.43,7.52,11,14.9,19.62,25.82,41.3,49.87,9.29,10.3,18.93,20.26t19.63,19.57q16.63,16,34.22,31a767.67,767.67,0,0,0,137.5,93.64q8.21,4.36,16.53,8.54t16.76,8.15q8.43,4,17,7.74a758.56,758.56,0,0,0,307,64.51,767.67,767.67,0,0,0,87.59-5q7.18-.83,14.34-1.79c4.76-.63,9.51-1.32,14.25-2s9.45-1.5,14.16-2.31l7-1.25q10.56-1.93,21-4.15,3.5-.73,7-1.51,10.43-2.31,20.73-4.9,6.88-1.72,13.7-3.58,26.43-7.18,52.06-16.18c2.78-1,5.55-2,8.32-3q34.65-12.6,67.69-28.42c2-1,4-1.94,6-2.93q4.73-2.3,9.41-4.67,6.19-3.14,12.33-6.38,3.06-1.62,6.11-3.27,33.55-18.13,65-39.48h0l2.07,2.09,3.18-5.69q27.54-19,53.32-40.28,3.67-3,7.32-6.12L1518,2555.52A803.36,803.36,0,0,0,1530,2417C1530,1976.28,1172.72,1619,732,1619Z"/></g><g class="cls-22"><path class="cls-23" d="M1785.5,1203C930.84,1203,238,1810.55,238,2560q0,15.45.4,30.82,12,14.68,24.65,28.76,9.29,10.3,18.93,20.26t19.63,19.57q16.63,16,34.22,31a767.67,767.67,0,0,0,137.5,93.64q8.21,4.36,16.53,8.54t16.76,8.15q8.43,4,17,7.74a758.56,758.56,0,0,0,307,64.51,767.67,767.67,0,0,0,87.59-5q7.18-.83,14.34-1.79c4.76-.63,9.51-1.32,14.25-2s9.45-1.5,14.16-2.31l7-1.25q10.56-1.93,21-4.15,3.5-.73,7-1.51,10.43-2.31,20.73-4.9,6.88-1.72,13.7-3.58,26.43-7.18,52.06-16.18c2.78-1,5.55-2,8.32-3q34.65-12.6,67.69-28.42c2-1,4-1.94,6-2.93q4.73-2.3,9.41-4.67,6.19-3.14,12.33-6.38,3.06-1.62,6.11-3.27,33.55-18.13,65-39.48h0l2.07,2.09,3.18-5.69q27.54-19,53.32-40.28,3.67-3,7.32-6.12L1518,2552.52c.06-.38.12-.76.19-1.14l515.26-369.71h0L2854,1592.91,1771.25,1825.15l330.89-593.71A1764.51,1764.51,0,0,0,1785.5,1203Z"/></g><g class="cls-24"><path class="cls-25" d="M660.52,1494c-146,8.61-284.62,66.12-389.59,173.69C28.58,1916.1,57.4,2337.26,335.29,2608.41c108.46,105.83,238.83,173.17,371.9,201.17C400.09,2401.24,377.61,1861.67,660.52,1494Z"/></g></svg>